<!--?xml version="1.0" standalone="no"?-->
              <svg id="sw-js-blob-svg" viewBox="0 0 100 100" xmlns="http://www.w3.org/2000/svg" version="1.1">
                    <defs> 
                        <linearGradient id="sw-gradient" x1="0" x2="1" y1="1" y2="0">
                            <stop id="stop1" stop-color="rgba(226, 147, 104, 1)" offset="0%"></stop>
                            <stop id="stop2" stop-color="rgba(226, 147, 104, 1)" offset="100%"></stop>
                        </linearGradient>
                    </defs>
                <path fill="url(#sw-gradient)" d="M18.3,-23.5C24.6,-20.6,31.4,-16.5,36,-9.9C40.7,-3.3,43.3,5.8,40.8,13.2C38.4,20.7,30.9,26.4,23.2,31.9C15.6,37.4,7.8,42.6,-0.4,43.2C-8.7,43.8,-17.3,39.8,-23.6,33.9C-29.8,27.9,-33.6,20,-35.2,12.1C-36.8,4.2,-36.3,-3.7,-34.4,-11.7C-32.6,-19.7,-29.3,-27.8,-23.4,-30.8C-17.4,-33.9,-8.7,-31.9,-1.4,-30C6,-28.1,11.9,-26.4,18.3,-23.5Z" width="100%" height="100%" transform="translate(50 50)" stroke-width="0" style="transition: all 0.3s ease 0s;" stroke="url(#sw-gradient)"></path>
              </svg>